<svg width="680" height="680" viewBox="0 0 680 680" xmlns="http://www.w3.org/2000/svg" style="background:#ffffff; font-family: Arial, sans-serif;">
<defs>
  <marker id="arrow" viewBox="0 0 10 10" refX="8" refY="5" markerWidth="6" markerHeight="6" orient="auto-start-reverse">
    <path d="M2 1L8 5L2 9" fill="none" stroke="#888780" stroke-width="1.5" stroke-linecap="round" stroke-linejoin="round"/>
  </marker>
</defs>



<!-- ===== LEFT: Base Model ===== -->
<!-- Header -->
<rect x="30" y="45" width="270" height="34" rx="8" fill="#D3D1C7" stroke="#5F5E5A" stroke-width="0.5"/>
<text x="165" y="67" text-anchor="middle" font-size="13" font-weight="600" fill="#2C2C2A">Base MobileNetV2</text>

<!-- Input -->
<rect x="80" y="100" width="170" height="38" rx="6" fill="#F1EFE8" stroke="#5F5E5A" stroke-width="0.5"/>
<text x="165" y="123" text-anchor="middle" font-size="13" font-weight="500" fill="#2C2C2A">Input image</text>

<!-- Expand -->
<rect x="80" y="160" width="170" height="38" rx="6" fill="#B5D4F4" stroke="#185FA5" stroke-width="0.5"/>
<text x="165" y="183" text-anchor="middle" font-size="13" font-weight="500" fill="#0C447C">1×1 Conv (Expand)</text>

<!-- Depthwise Conv -->
<rect x="80" y="220" width="170" height="46" rx="6" fill="#B5D4F4" stroke="#185FA5" stroke-width="0.5"/>
<text x="165" y="238" text-anchor="middle" font-size="13" font-weight="500" fill="#0C447C">3×3 Depthwise Conv</text>
<text x="165" y="255" text-anchor="middle" font-size="11" fill="#185FA5">Standard spatial op</text>

<!-- Project -->
<rect x="80" y="288" width="170" height="38" rx="6" fill="#B5D4F4" stroke="#185FA5" stroke-width="0.5"/>
<text x="165" y="311" text-anchor="middle" font-size="13" font-weight="500" fill="#0C447C">1×1 Conv (Project) + BN</text>

<!-- No attention -->
<rect x="80" y="348" width="170" height="38" rx="6" fill="#F1EFE8" stroke="#888780" stroke-width="0.5" stroke-dasharray="5 3"/>
<text x="165" y="371" text-anchor="middle" font-size="11" fill="#5F5E5A">No channel attention</text>

<!-- Residual -->
<rect x="80" y="408" width="170" height="38" rx="6" fill="#F1EFE8" stroke="#5F5E5A" stroke-width="0.5"/>
<text x="165" y="431" text-anchor="middle" font-size="12" font-weight="500" fill="#2C2C2A">Output F(X)</text>


<!-- Arrows left -->
<line x1="165" y1="138" x2="165" y2="158" stroke="#888780" stroke-width="1.2" marker-end="url(#arrow)"/>
<line x1="165" y1="198" x2="165" y2="218" stroke="#888780" stroke-width="1.2" marker-end="url(#arrow)"/>
<line x1="165" y1="266" x2="165" y2="286" stroke="#888780" stroke-width="1.2" marker-end="url(#arrow)"/>
<line x1="165" y1="326" x2="165" y2="346" stroke="#888780" stroke-width="1.2" marker-end="url(#arrow)"/>
<line x1="165" y1="386" x2="165" y2="406" stroke="#888780" stroke-width="1.2" marker-end="url(#arrow)"/>

<!-- Skip connection left -->
<path d="M80 427 L50 427 L50 119 L80 119" fill="none" stroke="#888780" stroke-width="0.8" stroke-dasharray="4 3" marker-end="url(#arrow)"/>
<text x="38" y="285" text-anchor="middle" font-size="10" fill="#888780" transform="rotate(-90, 38, 285)">skip</text>

<!-- ===== RIGHT: Proposed Model ===== -->
<!-- Header -->
<rect x="380" y="45" width="270" height="34" rx="8" fill="#9FE1CB" stroke="#0F6E56" stroke-width="0.5"/>
<text x="515" y="67" text-anchor="middle" font-size="13" font-weight="600" fill="#085041">Proposed Hybrid Model</text>

<!-- Input -->
<rect x="430" y="100" width="170" height="38" rx="6" fill="#F1EFE8" stroke="#5F5E5A" stroke-width="0.5"/>
<text x="515" y="123" text-anchor="middle" font-size="13" font-weight="500" fill="#2C2C2A">Input image</text>

<!-- Expand -->
<rect x="430" y="160" width="170" height="38" rx="6" fill="#B5D4F4" stroke="#185FA5" stroke-width="0.5"/>
<text x="515" y="183" text-anchor="middle" font-size="13" font-weight="500" fill="#0C447C">1×1 Conv (Expand)</text>

<!-- DualConv NEW -->
<rect x="430" y="220" width="170" height="58" rx="6" fill="#5DCAA5" stroke="#0F6E56" stroke-width="1.2"/>
<text x="515" y="238" text-anchor="middle" font-size="13" font-weight="600" fill="#04342C">DualConv</text>
<text x="515" y="254" text-anchor="middle" font-size="11" fill="#085041">Br-A: 3×3 grouped conv</text>
<text x="515" y="269" text-anchor="middle" font-size="11" fill="#085041">Br-B: 1×1 channel mix</text>
<!-- NEW badge -->
<rect x="596" y="220" width="32" height="16" rx="4" fill="#0F6E56"/>
<text x="612" y="232" text-anchor="middle" font-size="10" font-weight="600" fill="#9FE1CB">NEW</text>

<!-- Project -->
<rect x="430" y="300" width="170" height="38" rx="6" fill="#B5D4F4" stroke="#185FA5" stroke-width="0.5"/>
<text x="515" y="323" text-anchor="middle" font-size="13" font-weight="500" fill="#0C447C">1×1 Conv (Project) + BN</text>

<!-- ECA NEW -->
<rect x="430" y="360" width="170" height="58" rx="6" fill="#5DCAA5" stroke="#0F6E56" stroke-width="1.2"/>
<text x="515" y="378" text-anchor="middle" font-size="13" font-weight="600" fill="#04342C">ECA Module</text>
<text x="515" y="394" text-anchor="middle" font-size="11" fill="#085041">Global avg pool + 1D conv</text>
<text x="515" y="409" text-anchor="middle" font-size="11" fill="#085041">Sigmoid channel reweight</text>
<!-- NEW badge -->
<rect x="596" y="360" width="32" height="16" rx="4" fill="#0F6E56"/>
<text x="612" y="372" text-anchor="middle" font-size="10" font-weight="600" fill="#9FE1CB">NEW</text>

<!-- Residual -->
<rect x="430" y="440" width="170" height="38" rx="6" fill="#F1EFE8" stroke="#5F5E5A" stroke-width="0.5"/>
<text x="515" y="463" text-anchor="middle" font-size="12" font-weight="500" fill="#2C2C2A">Output F(X)
</text>

<!-- Arrows right -->
<line x1="515" y1="138" x2="515" y2="158" stroke="#888780" stroke-width="1.2" marker-end="url(#arrow)"/>
<line x1="515" y1="198" x2="515" y2="218" stroke="#888780" stroke-width="1.2" marker-end="url(#arrow)"/>
<line x1="515" y1="278" x2="515" y2="298" stroke="#888780" stroke-width="1.2" marker-end="url(#arrow)"/>
<line x1="515" y1="338" x2="515" y2="358" stroke="#888780" stroke-width="1.2" marker-end="url(#arrow)"/>
<line x1="515" y1="418" x2="515" y2="438" stroke="#888780" stroke-width="1.2" marker-end="url(#arrow)"/>

<!-- Skip connection right -->
<path d="M600 459 L640 459 L640 119 L600 119" fill="none" stroke="#888780" stroke-width="0.8" stroke-dasharray="4 3" marker-end="url(#arrow)"/>
<text x="652" y="285" text-anchor="middle" font-size="10" fill="#888780" transform="rotate(90, 652, 285)">skip</text>

<!-- Divider -->
<line x1="340" y1="40" x2="340" y2="625" stroke="#B4B2A9" stroke-width="1" stroke-dasharray="6 4"/>

<!-- Legend -->
<rect x="30" y="548" width="620" height="62" rx="8" stroke="#B4B2A9" stroke-width="0.5" fill="#F8F7F3"/>
<text x="44" y="567" font-size="12" font-weight="500" fill="#2C2C2A">Legend:</text>
<rect x="108" y="557" width="14" height="14" rx="3" fill="#5DCAA5" stroke="#0F6E56" stroke-width="0.8"/>
<text x="128" y="569" font-size="11" fill="#2C2C2A">Modified / new component (DualConv, ECA)</text>
<rect x="400" y="557" width="14" height="14" rx="3" fill="#B5D4F4" stroke="#185FA5" stroke-width="0.5"/>
<text x="420" y="569" font-size="11" fill="#2C2C2A">Unchanged from base MobileNetV2</text>
<rect x="108" y="578" width="14" height="14" rx="3" stroke="#888780" stroke-width="0.5" fill="#F1EFE8" stroke-dasharray="3 2"/>
<text x="128" y="590" font-size="11" fill="#2C2C2A">Absent in base model</text>
</svg>
