<svg width="980" height="580" viewBox="0 0 980 580" xmlns="http://www.w3.org/2000/svg" style="background:#ffffff; font-family: Arial, sans-serif;">
  <defs>
    <marker id="arrow" viewBox="0 0 10 10" refX="8" refY="5" markerWidth="6" markerHeight="6" orient="auto-start-reverse">
      <path d="M2 1L8 5L2 9" fill="none" stroke="#5F5E5A" stroke-width="1.5" stroke-linecap="round" stroke-linejoin="round"/>
    </marker>
  </defs>

  <rect x="20" y="20" width="940" height="540" rx="12" fill="#F8F7F3" stroke="#5F5E5A" stroke-width="1"/>
  

  <g stroke="#B4B2A9" stroke-width="1">
    <line x1="100" y1="120" x2="100" y2="440" />
    <line x1="260" y1="120" x2="260" y2="440" />
    <line x1="420" y1="120" x2="420" y2="440" />
    <line x1="580" y1="120" x2="580" y2="440" />
    <line x1="740" y1="120" x2="740" y2="440" />
    <line x1="900" y1="120" x2="900" y2="440" />
  </g>

  <rect x="50" y="75" width="100" height="45" rx="6" fill="#F1EFE8" stroke="#5F5E5A" stroke-width="0.8"/>
  <text x="100" y="103" text-anchor="middle" font-size="11" font-weight="600" fill="#2C2C2A">Input X</text>

  <rect x="210" y="75" width="100" height="45" rx="6" fill="#B5D4F4" stroke="#185FA5" stroke-width="0.8"/>
  <text x="260" y="96" text-anchor="middle" font-size="10" font-weight="600" fill="#0C447C">1×1 Conv</text>
  <text x="260" y="110" text-anchor="middle" font-size="9" fill="#185FA5">(Expand)</text>

  <rect x="360" y="75" width="120" height="45" rx="6" fill="#5DCAA5" stroke="#0F6E56" stroke-width="1.2"/>
  <text x="420" y="96" text-anchor="middle" font-size="10" font-weight="600" fill="#04342C">DualConv</text>
  <text x="420" y="110" text-anchor="middle" font-size="9" fill="#085041">Two-branch</text>

  <rect x="530" y="75" width="100" height="45" rx="6" fill="#B5D4F4" stroke="#185FA5" stroke-width="0.8"/>
  <text x="580" y="96" text-anchor="middle" font-size="10" font-weight="600" fill="#0C447C">1×1 Conv</text>
  <text x="580" y="110" text-anchor="middle" font-size="9" fill="#185FA5">(Project) + BN</text>

  <rect x="690" y="75" width="100" height="45" rx="6" fill="#5DCAA5" stroke="#0F6E56" stroke-width="1.2"/>
  <text x="740" y="103" text-anchor="middle" font-size="10" font-weight="600" fill="#04342C">ECA Module</text>

  <rect x="850" y="75" width="100" height="45" rx="6" fill="#F1EFE8" stroke="#5F5E5A" stroke-width="0.8"/>
  <text x="900" y="103" text-anchor="middle" font-size="11" font-weight="600" fill="#2C2C2A">Output Y</text>

  <line x1="100" y1="150" x2="258" y2="150" stroke="#5F5E5A" stroke-width="1.2" marker-end="url(#arrow)"/>
  <text x="179" y="145" text-anchor="middle" font-size="9" fill="#5F5E5A">expand: Cin → t·Cin</text>

  <line x1="260" y1="190" x2="418" y2="190" stroke="#0F6E56" stroke-width="1.2" marker-end="url(#arrow)"/>
  <text x="340" y="185" text-anchor="middle" font-size="9" fill="#085041">replace depthwise conv</text>

  <line x1="420" y1="230" x2="578" y2="230" stroke="#5F5E5A" stroke-width="1.2" marker-end="url(#arrow)"/>
  <text x="500" y="215" text-anchor="middle" font-size="9" fill="#5F5E5A">project: t·Cin → Cout</text>
  <text x="500" y="225" text-anchor="middle" font-size="9" fill="#5F5E5A">+ BatchNorm</text>

  <line x1="580" y1="270" x2="738" y2="270" stroke="#0F6E56" stroke-width="1.2" marker-end="url(#arrow)"/>
  <text x="659" y="265" text-anchor="middle" font-size="9" fill="#085041">apply ECA</text>

  <line x1="740" y1="310" x2="898" y2="310" stroke="#5F5E5A" stroke-width="1.2" marker-end="url(#arrow)"/>
  <text x="820" y="295" text-anchor="middle" font-size="9" fill="#5F5E5A">block output</text>
  <text x="820" y="305" text-anchor="middle" font-size="9" fill="#5F5E5A">F(X) reweighted</text>

  <rect x="340" y="325" width="160" height="60" rx="4" fill="#E1F5EE" stroke="#0F6E56" stroke-width="0.8"/>
  <text x="350" y="340" font-size="9" font-weight="600" fill="#085041">DualConv structure:</text>
  <text x="350" y="355" font-size="9" fill="#085041">• Branch A: 3×3 conv (grouped)</text>
  <text x="350" y="367" font-size="9" fill="#085041">• Branch B: 1×1 conv</text>
  <text x="350" y="379" font-size="9" fill="#085041">• Merge: add/concat</text>

  <rect x="660" y="325" width="160" height="60" rx="4" fill="#E1F5EE" stroke="#0F6E56" stroke-width="0.8"/>
  <text x="670" y="340" font-size="9" font-weight="600" fill="#085041">ECA structure:</text>
  <text x="670" y="355" font-size="9" fill="#085041">• Global average pooling</text>
  <text x="670" y="367" font-size="9" fill="#085041">• 1D conv over channels</text>
  <text x="670" y="379" font-size="9" fill="#085041">• Channel-wise reweighting</text>

  <rect x="40" y="440" width="900" height="90" rx="8" fill="#F1EFE8" stroke="#B4B2A9" stroke-width="1"/>
  <text x="490" y="460" text-anchor="middle" font-size="10" font-weight="600" fill="#2C2C2A">Let F(X) be the output after: Expand → DualConv → Project + BN → ECA</text>
  <text x="490" y="485" text-anchor="middle" font-size="10" fill="#5F5E5A">If stride = 1 and Cin = Cout:</text>
  <text x="490" y="500" text-anchor="middle" font-size="10" font-weight="600" fill="#0C447C">Y = X + F(X) (residual connection)</text>
  <text x="490" y="515" text-anchor="middle" font-size="10" fill="#5F5E5A">Otherwise: Y = F(X)</text>
</svg>
